<svg width="24" height="24" viewBox="0 0 24 24" fill="none" xmlns="http://www.w3.org/2000/svg">
<path d="M13.6402 2.36682L17.0781 5.23178C17.5579 5.63158 17.5579 6.36843 17.0781 6.76822L13.6402 9.63318C12.9889 10.176 12 9.7128 12 8.86496V7C8.68629 7 6 9.68629 6 13C6 16.3137 8.68629 19 12 19C14.7165 19 17.0138 17.1939 17.7517 14.7148C17.9092 14.1854 18.466 13.884 18.9954 14.0415C19.5247 14.1991 19.8261 14.7559 19.6686 15.2853C18.6853 18.5891 15.6255 21 12 21C7.58172 21 4 17.4183 4 13C4 8.58172 7.58172 5 12 5V3.13504C12 2.28721 12.9889 1.82405 13.6402 2.36682Z" fill="#9FB8C6"/>
</svg>
